name Walk8.mot
datacolumns 19
datarows 25
range 1.37500000 1.49500000
endheader

                time	   L_ground_force_vx	   L_ground_force_vy	   L_ground_force_vz	   L_ground_force_px	   L_ground_force_py	   L_ground_force_pz	   R_ground_force_vx	   R_ground_force_vy	   R_ground_force_vz	   R_ground_force_px	   R_ground_force_py	   R_ground_force_pz	   L_ground_torque_x	   L_ground_torque_y	   L_ground_torque_z	   R_ground_torque_x	   R_ground_torque_y	   R_ground_torque_z	
          1.37500000	         -4.60595166	        116.21149409	        -14.68853175	         -0.08775847	          0.00000000	          0.01985274	          0.00000000	         -0.00000000	         -0.00000000	         -0.00000000	          0.00000000	         -0.00000000	          0.00000000	          0.29754934	          0.00000000	          0.00000000	         -0.00000000	          0.00000000	
          1.38000000	        -10.03806110	        165.62285542	        -20.79071470	         -0.11475882	          0.00000000	          0.02611707	          0.00000000	         -0.00000000	         -0.00000000	          0.00000000	          0.00000000	          0.00000000	          0.00000000	          0.41946239	          0.00000000	          0.00000000	         -0.00000000	          0.00000000	
          1.38500000	        -17.27086082	        222.24858270	        -27.74217272	         -0.14272011	          0.00000000	          0.03266668	          0.00000000	          0.00000000	          0.00000000	          0.00000000	          0.00000000	          0.00000000	          0.00000000	          0.55784169	          0.00000000	          0.00000000	         -0.00000000	          0.00000000	
          1.39000000	        -26.42344322	        283.20569234	        -35.15523661	         -0.16926708	          0.00000000	          0.03896555	          0.00000000	          0.00000000	          0.00000000	          0.00000000	          0.00000000	          0.00000000	          0.00000000	          0.70503584	          0.00000000	          0.00000000	         -0.00000000	          0.00000000	
          1.39500000	        -37.46692099	        344.20127239	        -42.35588042	         -0.19264775	          0.00000000	          0.04458837	         -0.00000000	          0.00000000	          0.00000000	          0.00000000	          0.00000000	          0.00000000	          0.00000000	          0.85033119	          0.00000000	          0.00000000	         -0.00000000	          0.00000000	
          1.40000000	        -50.15908652	        401.20891561	        -48.43315657	         -0.21197921	          0.00000000	          0.04927257	         -0.00000000	          0.00000000	          0.00000000	          0.00000000	          0.00000000	          0.00000000	          0.00000000	          0.98459644	          0.00000000	          0.00000000	          0.00000000	          0.00000000	
          1.40500000	        -63.98851633	        452.08309355	        -52.53512961	         -0.22701358	          0.00000000	          0.05288470	         -0.00000000	          0.00000000	          0.00000000	          0.00000000	          0.00000000	          0.00000000	          0.00000000	          1.10225204	          0.00000000	          0.00000000	          0.00000000	          0.00000000	
          1.41000000	        -78.23270666	        496.26021739	        -54.15650845	         -0.23792656	          0.00000000	          0.05539613	         -0.00000000	          0.00000000	          0.00000000	          0.00000000	          0.00000000	          0.00000000	          0.00000000	          1.19877634	          0.00000000	          0.00000000	          0.00000000	          0.00000000	
          1.41500000	        -92.11248320	        534.11330241	        -53.22584247	         -0.24514487	          0.00000000	          0.05685711	         -0.00000000	          0.00000000	          0.00000000	          0.00000000	          0.00000000	          0.00000000	          0.00000000	          1.26966128	          0.00000000	          0.00000000	          0.00000000	          0.00000000	
          1.42000000	       -104.97915904	        566.74645915	        -50.02994897	         -0.24921633	          0.00000000	          0.05736642	         -0.00000000	          0.00000000	          0.00000000	          0.00000000	          0.00000000	          0.00000000	          0.00000000	          1.31112349	          0.00000000	          0.00000000	          0.00000000	          0.00000000	
          1.42500000	       -116.47696229	        595.83942216	        -45.04711560	         -0.25071661	          0.00000000	          0.05704430	         -0.00000000	          0.00000001	          0.00000000	          0.00000000	          0.00000000	          0.00000000	          0.00000000	          1.32076472	          0.00000000	          0.00000000	          0.00000000	          0.00000000	
          1.43000000	       -126.61643966	        623.37868345	        -38.78696326	         -0.25018868	          0.00000000	          0.05601410	         -0.00000000	          0.00000001	          0.00000000	          0.00000000	          0.00000000	          0.00000000	          0.00000000	          1.29859997	          0.00000000	          0.00000000	          0.00000000	          0.00000000	
          1.43500000	       -135.69813334	        651.31187155	        -31.71112739	         -0.24811337	          0.00000000	          0.05439617	         -0.00000000	          0.00000001	          0.00000000	          0.00000000	          0.00000000	          0.00000000	          0.00000000	          1.24697390	          0.00000000	          0.00000000	          0.00000000	          0.00000000	
          1.44000000	       -144.11305672	        681.19295742	        -24.22832604	         -0.24490310	          0.00000000	          0.05230940	         -0.00000000	          0.00000001	          0.00000000	          0.00000000	          0.00000000	          0.00000000	          0.00000000	          1.16984313	          0.00000000	          0.00000000	          0.00000000	          0.00000000	
          1.44500000	       -152.14543559	        713.94809532	        -16.70617150	         -0.24090868	          0.00000000	          0.04987558	         -0.00000000	          0.00000001	          0.00000000	          0.00000000	          0.00000000	          0.00000000	          0.00000000	          1.07225652	          0.00000000	          0.00000000	          0.00000000	          0.00000000	
          1.45000000	       -159.88638339	        749.81406152	         -9.47216184	         -0.23642898	          0.00000000	          0.04721818	         -0.00000000	          0.00000000	          0.00000000	         -0.00000000	          0.00000000	         -0.00000000	          0.00000000	          0.96155070	          0.00000000	          0.00000000	          0.00000000	          0.00000000	
          1.45500000	       -167.26005467	        788.38764200	         -2.79684790	         -0.23171502	          0.00000000	          0.04445562	         -0.00000000	         -0.00000000	         -0.00000000	         -0.00000000	          0.00000000	         -0.00000000	          0.00000000	          0.84751326	          0.00000000	          0.00000000	          0.00000000	          0.00000000	
          1.46000000	       -174.10216858	        828.75398299	          3.13889878	         -0.22696865	          0.00000000	          0.04169209	         -0.00000000	         -0.00000001	         -0.00000000	         -0.00000000	          0.00000000	         -0.00000000	          0.00000000	          0.74073790	          0.00000000	          0.00000000	          0.00000000	          0.00000000	
          1.46500000	       -180.23403976	        869.70055489	          8.27260922	         -0.22234059	          0.00000000	          0.03900891	          0.00000000	         -0.00000002	         -0.00000000	         -0.00000000	          0.00000000	         -0.00000000	          0.00000000	          0.65021924	          0.00000000	          0.00000000	          0.00000000	          0.00000000	
          1.47000000	       -185.50472656	        909.97148622	         12.65074696	         -0.21793121	          0.00000000	          0.03645926	          0.00000000	         -0.00000003	         -0.00000000	         -0.00000000	          0.00000000	         -0.00000000	          0.00000000	          0.58132618	          0.00000000	          0.00000000	         -0.00000000	          0.00000000	
          1.47500000	       -189.80499712	        948.47258604	         16.37933643	         -0.21379718	          0.00000000	          0.03407013	          0.00000000	         -0.00000004	         -0.00000000	         -0.00000000	          0.00000000	         -0.00000000	          0.00000000	          0.53520265	          0.00000000	          0.00000000	         -0.00000000	          0.00000000	
          1.48000000	       -193.06971992	        984.36828041	         19.57308941	         -0.20996161	          0.00000000	          0.03184804	          0.00000000	         -0.00000006	         -0.00000000	         -0.00000000	          0.00000000	         -0.00000000	          0.00000000	          0.50997692	          0.00000000	          0.00000000	         -0.00000000	          0.00000000	
          1.48500000	       -195.27735098	       1017.07275907	         22.33307762	         -0.20642382	          0.00000000	          0.02978664	          0.00000001	         -0.00000008	         -0.00000001	         -0.00000000	          0.00000000	         -0.00000000	          0.00000000	          0.50213083	          0.00000000	          0.00000000	         -0.00000000	          0.00000000	
          1.49000000	       -196.44845672	       1046.19215957	         24.75119024	         -0.20316653	          0.00000000	          0.02787153	          0.00000001	         -0.00000010	         -0.00000001	         -0.00000000	          0.00000000	         -0.00000000	          0.00000000	          0.50733136	          0.00000000	          0.00000000	         -0.00000000	          0.00000000	
          1.49500000	       -196.63922292	       1071.47663518	         26.92339948	         -0.20016148	          0.00000000	          0.02608272	          0.00000001	         -0.00000012	         -0.00000001	         -0.00000000	          0.00000000	         -0.00000000	          0.00000000	          0.52052538	          0.00000000	          0.00000000	         -0.00000000	          0.00000000	
